<?xml version="1.0" standalone="no"?>
<!DOCTYPE svg PUBLIC "-//W3C//DTD SVG 20010904//EN"
 "http://www.w3.org/TR/2001/REC-SVG-20010904/DTD/svg10.dtd">
<svg version="1.0" xmlns="http://www.w3.org/2000/svg"
 width="200.000000pt" height="200.000000pt" viewBox="0 0 200.000000 200.000000"
 preserveAspectRatio="xMidYMid meet">
<metadata>
Created by potrace 1.11, written by Peter Selinger 2001-2013
</metadata>
<g transform="translate(0.000000,200.000000) scale(0.100000,-0.100000)"
fill="#000000" stroke="none">
<path d="M894 1730 l-102 -60 -1 -118 c-1 -114 0 -119 22 -130 76 -39 142 -83
145 -95 3 -15 -10 -24 -145 -99 l-63 -34 126 -73 125 -72 47 28 c73 43 124 72
160 90 17 9 32 20 32 24 0 4 -45 33 -100 64 -55 31 -100 62 -100 69 0 7 38 34
85 61 l85 49 0 118 0 117 -95 56 c-52 30 -101 58 -107 60 -7 3 -59 -22 -114
-55z"/>
<path d="M605 1575 c-33 -19 -120 -67 -192 -107 l-133 -72 0 -203 c0 -112 3
-203 6 -203 9 0 148 82 154 91 3 4 5 54 5 111 l0 103 110 61 110 60 2 97 c1
53 1 97 0 97 -1 -1 -29 -16 -62 -35z"/>
<path d="M1331 1512 l1 -98 111 -59 112 -58 0 -110 0 -109 83 -49 82 -49 0
208 0 207 -37 20 c-21 11 -83 45 -140 77 -56 31 -127 70 -157 87 l-56 30 1
-97z"/>
<path d="M708 1002 c2 -117 2 -119 -22 -130 -20 -9 -35 -4 -111 38 l-87 49
-104 -57 -103 -57 -1 -122 0 -122 72 -42 c40 -23 87 -50 103 -60 l31 -18 104
59 105 59 0 88 c0 83 1 89 25 104 27 18 38 13 196 -78 l42 -24 0 147 c-1 124
-3 147 -17 152 -9 3 -65 34 -125 69 -60 35 -109 63 -110 63 0 0 0 -53 2 -118z"/>
<path d="M1165 1050 l-120 -67 -3 -147 -3 -147 43 24 c24 14 71 40 105 60 59
34 62 34 89 18 26 -16 27 -19 27 -104 l0 -87 103 -59 103 -59 106 60 106 59
-3 121 -3 122 -45 26 c-25 14 -71 41 -103 58 l-59 32 -86 -51 c-73 -42 -90
-49 -109 -40 -21 10 -23 17 -25 129 l-3 119 -120 -67z"/>
<path d="M776 503 c-2 -5 -38 -26 -80 -48 -41 -22 -74 -40 -73 -41 3 -2 108
-59 249 -136 l128 -69 82 44 c135 71 297 161 295 163 -1 1 -40 23 -86 49 l-84
47 -41 -22 c-23 -12 -69 -37 -104 -56 l-63 -34 -101 55 c-104 57 -113 60 -122
48z"/>
</g>
</svg>
